<svg width="103" height="24" viewBox="0 0 103 24" fill="none" xmlns="http://www.w3.org/2000/svg">
<path d="M42.688 8.032V11.76H46.752V12.96H42.688V16.8H47.232V18H41.232V6.832H47.232V8.032H42.688ZM53.7071 9.072C54.7738 9.072 55.6378 9.39733 56.2991 10.048C56.9605 10.688 57.2911 11.616 57.2911 12.832V18H55.8511V13.04C55.8511 12.1653 55.6325 11.4987 55.1951 11.04C54.7578 10.5707 54.1605 10.336 53.4031 10.336C52.6351 10.336 52.0218 10.576 51.5631 11.056C51.1151 11.536 50.8911 12.2347 50.8911 13.152V18H49.4351V9.232H50.8911V10.48C51.1791 10.032 51.5685 9.68533 52.0591 9.44C52.5605 9.19467 53.1098 9.072 53.7071 9.072ZM61.4455 10.432V15.6C61.4455 16.0267 61.5362 16.3307 61.7175 16.512C61.8988 16.6827 62.2135 16.768 62.6615 16.768H63.7335V18H62.4215C61.6108 18 61.0028 17.8133 60.5975 17.44C60.1922 17.0667 59.9895 16.4533 59.9895 15.6V10.432H58.8535V9.232H59.9895V7.024H61.4455V9.232H63.7335V10.432H61.4455ZM66.9536 10.656C67.2096 10.1547 67.5723 9.76533 68.0416 9.488C68.5216 9.21067 69.103 9.072 69.7856 9.072V10.576H69.4016C67.7696 10.576 66.9536 11.4613 66.9536 13.232V18H65.4976V9.232H66.9536V10.656ZM70.9224 13.584C70.9224 12.688 71.1037 11.904 71.4664 11.232C71.829 10.5493 72.325 10.0213 72.9544 9.648C73.5944 9.27467 74.3037 9.088 75.0824 9.088C75.8504 9.088 76.517 9.25333 77.0824 9.584C77.6477 9.91467 78.069 10.3307 78.3464 10.832V9.232H79.8184V18H78.3464V16.368C78.0584 16.88 77.6264 17.3067 77.0504 17.648C76.485 17.9787 75.8237 18.144 75.0664 18.144C74.2877 18.144 73.5837 17.952 72.9544 17.568C72.325 17.184 71.829 16.6453 71.4664 15.952C71.1037 15.2587 70.9224 14.4693 70.9224 13.584ZM78.3464 13.6C78.3464 12.9387 78.213 12.3627 77.9464 11.872C77.6797 11.3813 77.317 11.008 76.8584 10.752C76.4104 10.4853 75.9144 10.352 75.3704 10.352C74.8264 10.352 74.3304 10.48 73.8824 10.736C73.4344 10.992 73.077 11.3653 72.8104 11.856C72.5437 12.3467 72.4104 12.9227 72.4104 13.584C72.4104 14.256 72.5437 14.8427 72.8104 15.344C73.077 15.8347 73.4344 16.2133 73.8824 16.48C74.3304 16.736 74.8264 16.864 75.3704 16.864C75.9144 16.864 76.4104 16.736 76.8584 16.48C77.317 16.2133 77.6797 15.8347 77.9464 15.344C78.213 14.8427 78.3464 14.2613 78.3464 13.6ZM81.7349 13.584C81.7349 12.688 81.9162 11.904 82.2789 11.232C82.6415 10.5493 83.1375 10.0213 83.7669 9.648C84.4069 9.27467 85.1215 9.088 85.9109 9.088C86.5935 9.088 87.2282 9.248 87.8149 9.568C88.4015 9.87733 88.8495 10.288 89.1589 10.8V6.16H90.6309V18H89.1589V16.352C88.8709 16.8747 88.4442 17.3067 87.8789 17.648C87.3135 17.9787 86.6522 18.144 85.8949 18.144C85.1162 18.144 84.4069 17.952 83.7669 17.568C83.1375 17.184 82.6415 16.6453 82.2789 15.952C81.9162 15.2587 81.7349 14.4693 81.7349 13.584ZM89.1589 13.6C89.1589 12.9387 89.0255 12.3627 88.7589 11.872C88.4922 11.3813 88.1295 11.008 87.6709 10.752C87.2229 10.4853 86.7269 10.352 86.1829 10.352C85.6389 10.352 85.1429 10.48 84.6949 10.736C84.2469 10.992 83.8895 11.3653 83.6229 11.856C83.3562 12.3467 83.2229 12.9227 83.2229 13.584C83.2229 14.256 83.3562 14.8427 83.6229 15.344C83.8895 15.8347 84.2469 16.2133 84.6949 16.48C85.1429 16.736 85.6389 16.864 86.1829 16.864C86.7269 16.864 87.2229 16.736 87.6709 16.48C88.1295 16.2133 88.4922 15.8347 88.7589 15.344C89.0255 14.8427 89.1589 14.2613 89.1589 13.6ZM92.5474 13.584C92.5474 12.688 92.7287 11.904 93.0914 11.232C93.454 10.5493 93.95 10.0213 94.5794 9.648C95.2194 9.27467 95.9287 9.088 96.7074 9.088C97.4754 9.088 98.142 9.25333 98.7074 9.584C99.2727 9.91467 99.694 10.3307 99.9714 10.832V9.232H101.443V18H99.9714V16.368C99.6834 16.88 99.2514 17.3067 98.6754 17.648C98.11 17.9787 97.4487 18.144 96.6914 18.144C95.9127 18.144 95.2087 17.952 94.5794 17.568C93.95 17.184 93.454 16.6453 93.0914 15.952C92.7287 15.2587 92.5474 14.4693 92.5474 13.584ZM99.9714 13.6C99.9714 12.9387 99.838 12.3627 99.5714 11.872C99.3047 11.3813 98.942 11.008 98.4834 10.752C98.0354 10.4853 97.5394 10.352 96.9954 10.352C96.4514 10.352 95.9554 10.48 95.5074 10.736C95.0594 10.992 94.702 11.3653 94.4354 11.856C94.1687 12.3467 94.0354 12.9227 94.0354 13.584C94.0354 14.256 94.1687 14.8427 94.4354 15.344C94.702 15.8347 95.0594 16.2133 95.5074 16.48C95.9554 16.736 96.4514 16.864 96.9954 16.864C97.5394 16.864 98.0354 16.736 98.4834 16.48C98.942 16.2133 99.3047 15.8347 99.5714 15.344C99.838 14.8427 99.9714 14.2613 99.9714 13.6Z" fill="#363F5F"/>
<path d="M12 2C6.47715 2 2 6.47715 2 12C2 17.5228 6.47715 22 12 22C17.5228 22 22 17.5228 22 12C22 6.47715 17.5228 2 12 2Z" stroke="#12A454" stroke-width="1.5" stroke-linecap="round" stroke-linejoin="round"/>
<path d="M16 12L12 8L8 12" stroke="#12A454" stroke-width="1.5" stroke-linecap="round" stroke-linejoin="round"/>
<path d="M12 16L12 8" stroke="#12A454" stroke-width="1.5" stroke-linecap="round" stroke-linejoin="round"/>
</svg>
