<svg width="86" height="26" viewBox="0 0 86 26" fill="none" xmlns="http://www.w3.org/2000/svg">
<path d="M44.768 20.112C44.032 20.112 43.3707 19.984 42.784 19.728C42.208 19.4613 41.7547 19.0987 41.424 18.64C41.0933 18.1707 40.9227 17.632 40.912 17.024H42.464C42.5173 17.5467 42.7307 17.9893 43.104 18.352C43.488 18.704 44.0427 18.88 44.768 18.88C45.4613 18.88 46.0053 18.7093 46.4 18.368C46.8053 18.016 47.008 17.568 47.008 17.024C47.008 16.5973 46.8907 16.2507 46.656 15.984C46.4213 15.7173 46.128 15.5147 45.776 15.376C45.424 15.2373 44.9493 15.088 44.352 14.928C43.616 14.736 43.024 14.544 42.576 14.352C42.1387 14.16 41.76 13.8613 41.44 13.456C41.1307 13.04 40.976 12.4853 40.976 11.792C40.976 11.184 41.1307 10.6453 41.44 10.176C41.7493 9.70667 42.1813 9.344 42.736 9.088C43.3013 8.832 43.9467 8.704 44.672 8.704C45.7173 8.704 46.5707 8.96533 47.232 9.488C47.904 10.0107 48.2827 10.704 48.368 11.568H46.768C46.7147 11.1413 46.4907 10.768 46.096 10.448C45.7013 10.1173 45.1787 9.952 44.528 9.952C43.92 9.952 43.424 10.112 43.04 10.432C42.656 10.7413 42.464 11.1787 42.464 11.744C42.464 12.1493 42.576 12.48 42.8 12.736C43.0347 12.992 43.3173 13.1893 43.648 13.328C43.9893 13.456 44.464 13.6053 45.072 13.776C45.808 13.9787 46.4 14.1813 46.848 14.384C47.296 14.576 47.68 14.88 48 15.296C48.32 15.7013 48.48 16.256 48.48 16.96C48.48 17.504 48.336 18.016 48.048 18.496C47.76 18.976 47.3333 19.3653 46.768 19.664C46.2027 19.9627 45.536 20.112 44.768 20.112ZM50.0786 15.584C50.0786 14.688 50.26 13.904 50.6226 13.232C50.9853 12.5493 51.4813 12.0213 52.1106 11.648C52.7506 11.2747 53.46 11.088 54.2386 11.088C55.0066 11.088 55.6733 11.2533 56.2386 11.584C56.804 11.9147 57.2253 12.3307 57.5026 12.832V11.232H58.9746V20H57.5026V18.368C57.2146 18.88 56.7826 19.3067 56.2066 19.648C55.6413 19.9787 54.98 20.144 54.2226 20.144C53.444 20.144 52.74 19.952 52.1106 19.568C51.4813 19.184 50.9853 18.6453 50.6226 17.952C50.26 17.2587 50.0786 16.4693 50.0786 15.584ZM57.5026 15.6C57.5026 14.9387 57.3693 14.3627 57.1026 13.872C56.836 13.3813 56.4733 13.008 56.0146 12.752C55.5666 12.4853 55.0706 12.352 54.5266 12.352C53.9826 12.352 53.4866 12.48 53.0386 12.736C52.5906 12.992 52.2333 13.3653 51.9666 13.856C51.7 14.3467 51.5666 14.9227 51.5666 15.584C51.5666 16.256 51.7 16.8427 51.9666 17.344C52.2333 17.8347 52.5906 18.2133 53.0386 18.48C53.4866 18.736 53.9826 18.864 54.5266 18.864C55.0706 18.864 55.5666 18.736 56.0146 18.48C56.4733 18.2133 56.836 17.8347 57.1026 17.344C57.3693 16.8427 57.5026 16.2613 57.5026 15.6ZM62.8911 11.232V20H61.4351V11.232H62.8911ZM63.7231 8.752L60.3151 10.576V9.488L63.7231 7.488V8.752ZM64.8286 15.584C64.8286 14.688 65.01 13.904 65.3726 13.232C65.7353 12.5493 66.2313 12.0213 66.8606 11.648C67.5006 11.2747 68.2153 11.088 69.0046 11.088C69.6873 11.088 70.322 11.248 70.9086 11.568C71.4953 11.8773 71.9433 12.288 72.2526 12.8V8.16H73.7246V20H72.2526V18.352C71.9646 18.8747 71.538 19.3067 70.9726 19.648C70.4073 19.9787 69.746 20.144 68.9886 20.144C68.21 20.144 67.5006 19.952 66.8606 19.568C66.2313 19.184 65.7353 18.6453 65.3726 17.952C65.01 17.2587 64.8286 16.4693 64.8286 15.584ZM72.2526 15.6C72.2526 14.9387 72.1193 14.3627 71.8526 13.872C71.586 13.3813 71.2233 13.008 70.7646 12.752C70.3166 12.4853 69.8206 12.352 69.2766 12.352C68.7326 12.352 68.2366 12.48 67.7886 12.736C67.3406 12.992 66.9833 13.3653 66.7166 13.856C66.45 14.3467 66.3166 14.9227 66.3166 15.584C66.3166 16.256 66.45 16.8427 66.7166 17.344C66.9833 17.8347 67.3406 18.2133 67.7886 18.48C68.2366 18.736 68.7326 18.864 69.2766 18.864C69.8206 18.864 70.3166 18.736 70.7646 18.48C71.2233 18.2133 71.586 17.8347 71.8526 17.344C72.1193 16.8427 72.2526 16.2613 72.2526 15.6ZM75.6411 15.584C75.6411 14.688 75.8225 13.904 76.1851 13.232C76.5478 12.5493 77.0438 12.0213 77.6731 11.648C78.3131 11.2747 79.0225 11.088 79.8011 11.088C80.5691 11.088 81.2358 11.2533 81.8011 11.584C82.3665 11.9147 82.7878 12.3307 83.0651 12.832V11.232H84.5371V20H83.0651V18.368C82.7771 18.88 82.3451 19.3067 81.7691 19.648C81.2038 19.9787 80.5425 20.144 79.7851 20.144C79.0065 20.144 78.3025 19.952 77.6731 19.568C77.0438 19.184 76.5478 18.6453 76.1851 17.952C75.8225 17.2587 75.6411 16.4693 75.6411 15.584ZM83.0651 15.6C83.0651 14.9387 82.9318 14.3627 82.6651 13.872C82.3985 13.3813 82.0358 13.008 81.5771 12.752C81.1291 12.4853 80.6331 12.352 80.0891 12.352C79.5451 12.352 79.0491 12.48 78.6011 12.736C78.1531 12.992 77.7958 13.3653 77.5291 13.856C77.2625 14.3467 77.1291 14.9227 77.1291 15.584C77.1291 16.256 77.2625 16.8427 77.5291 17.344C77.7958 17.8347 78.1531 18.2133 78.6011 18.48C79.0491 18.736 79.5451 18.864 80.0891 18.864C80.6331 18.864 81.1291 18.736 81.5771 18.48C82.0358 18.2133 82.3985 17.8347 82.6651 17.344C82.9318 16.8427 83.0651 16.2613 83.0651 15.6Z" fill="#363F5F"/>
<path d="M12 22.0001C17.5228 22.0001 22 17.5229 22 12.0001C22 6.47722 17.5228 2.00006 12 2.00006C6.47715 2.00006 2 6.47721 2 12.0001C2 17.5229 6.47715 22.0001 12 22.0001Z" stroke="#E62E4D" stroke-width="1.5" stroke-linecap="round" stroke-linejoin="round"/>
<path d="M8 12L12 16L16 12" stroke="#E62E4D" stroke-width="1.5" stroke-linecap="round" stroke-linejoin="round"/>
<path d="M12 8.00006L12 16.0001" stroke="#E62E4D" stroke-width="1.5" stroke-linecap="round" stroke-linejoin="round"/>
</svg>
